<svg width="49" height="43" viewBox="0 0 49 43" fill="none" xmlns="http://www.w3.org/2000/svg">
<path d="M0.28125 29.8868C0.28125 29.8868 11.0376 17.7119 24.3061 17.7119C37.5746 17.7119 48.3309 29.8868 48.3309 29.8868C48.3309 29.8868 37.5746 42.0617 24.3061 42.0617C11.0376 42.0617 0.28125 29.8868 0.28125 29.8868Z" fill="#E8DFD4"/>
<path d="M40.447 24.8323C40.447 24.8323 40.5192 18.6654 40.5192 17.7988C40.5192 8.55573 34.744 5.7828 30.8024 5.7828H7.3262L5.11719 0.00585938H34.744C42.0207 1.03127 48.3446 6.56269 48.3446 17.64V42.062H40.447V24.8323Z" fill="#E8DFD4"/>
<path d="M24.3057 36.3858C27.8939 36.3858 30.8028 33.4761 30.8028 29.8868C30.8028 26.2974 27.8939 23.3877 24.3057 23.3877C20.7174 23.3877 17.8086 26.2974 17.8086 29.8868C17.8086 33.4761 20.7174 36.3858 24.3057 36.3858Z" fill="#0268A3"/>
</svg>
