<svg width="54" height="47" viewBox="0 0 54 47" fill="none" xmlns="http://www.w3.org/2000/svg">
<path d="M38.8805 0.189688H6.08051L8.53052 6.56969H34.5005C38.8705 6.56969 45.2605 9.62969 45.2605 19.8597C45.2605 20.5097 45.2205 23.7897 45.1905 25.8797C40.4705 22.7297 34.2105 19.7597 27.3205 19.7597C12.6305 19.7597 0.730469 33.2297 0.730469 33.2297C0.730469 33.2297 12.6305 46.6997 27.3205 46.6997C34.2005 46.6997 40.4405 43.7397 45.1705 40.5997V46.6997H53.9105V19.6797C53.9105 7.43969 46.9105 1.31969 38.8705 0.179688L38.8805 0.189688Z" fill="#439848"/>
<path d="M31.6182 38.8285C34.7016 36.4599 35.2811 32.0403 32.9126 28.9569C30.544 25.8735 26.1244 25.294 23.041 27.6625C19.9576 30.0311 19.3781 34.4508 21.7466 37.5341C24.1151 40.6175 28.5348 41.197 31.6182 38.8285Z" fill="#F7CE54"/>
</svg>
