<?xml version="1.0" encoding="UTF-8"?><svg id="Layer_1" xmlns="http://www.w3.org/2000/svg" viewBox="0 0 207.04 209.53"><defs><style>.cls-1{fill:#ffcc31;}.cls-2{fill:#f16b37;}</style></defs><path class="cls-2" d="M205.91,104.77l-2.88-.96c-16.42-5.47-31.04-12.84-43.86-22.05,2.55-15.57,7.68-31.13,15.42-46.6l1.36-2.72-2.72,1.36c-15.48,7.74-31.03,12.87-46.6,15.42-9.21-12.82-16.57-27.44-22.05-43.86l-.96-2.88-.96,2.88c-5.47,16.42-12.84,31.04-22.05,43.86-15.57-2.55-31.12-7.68-46.6-15.42l-2.72-1.36,1.36,2.72c7.74,15.48,12.87,31.03,15.42,46.6-12.82,9.21-27.44,16.58-43.86,22.05l-2.88,.96,2.88,.96c16.42,5.47,31.04,12.84,43.86,22.05-2.55,15.57-7.68,31.13-15.42,46.6l-1.36,2.72,2.72-1.36c15.48-7.74,31.03-12.87,46.6-15.42,9.21,12.82,16.57,27.44,22.05,43.86l.96,2.88,.96-2.88c5.47-16.42,12.84-31.04,22.05-43.86,15.57,2.55,31.12,7.68,46.6,15.42l2.72,1.36-1.36-2.72c-7.74-15.48-12.87-31.03-15.42-46.6,12.82-9.21,27.44-16.58,43.86-22.05l2.88-.96Z"/><circle class="cls-1" cx="103.62" cy="104.24" r="39.41" transform="translate(-43.36 103.8) rotate(-45)"/></svg>