<svg width="30" height="30" viewBox="0 0 30 30" fill="none" xmlns="http://www.w3.org/2000/svg">
<path d="M7.67844 0.373047H22.3258C22.6329 0.421028 22.9423 0.451561 23.245 0.519171C26.6436 1.26724 28.8226 3.28461 29.7552 6.57567C29.8776 7.00532 29.9199 7.45459 30 7.89514V22.2458C29.9822 22.3483 29.9711 22.453 29.9444 22.5533C29.7418 23.3188 29.6461 24.1323 29.3123 24.8389C27.8188 28.01 25.2504 29.7046 21.6826 29.7526C17.2312 29.8137 12.7775 29.7701 8.32612 29.7657C6.6012 29.7657 5.00315 29.3077 3.5965 28.3263C1.21055 26.6579 0.0153489 24.3657 0.00644613 21.4955C-0.00468238 17.21 -0.000230978 12.9244 0.0108975 8.63667C0.0108975 8.08489 0.0420574 7.52002 0.162245 6.98351C0.912307 3.65538 2.97998 1.52895 6.32966 0.615132C6.76813 0.49518 7.22885 0.451561 7.67844 0.373047ZM27.3403 15.0748C27.3403 12.9506 27.3403 10.8285 27.3403 8.70428C27.3403 8.03254 27.2713 7.36735 27.0398 6.72833C26.1918 4.39036 24.1375 2.98364 21.5446 2.98146C17.18 2.9771 12.8176 2.96838 8.45298 2.99237C7.80085 2.99673 7.11756 3.08397 6.50104 3.2868C4.10396 4.0763 2.66839 6.11331 2.66393 8.65193C2.65726 12.9288 2.66171 17.2034 2.66393 21.4803C2.66393 22.1433 2.73961 22.7954 2.96886 23.4257C3.81462 25.7419 5.85114 27.1529 8.41515 27.1595C12.8087 27.1704 17.2 27.1682 21.5935 27.1595C23.561 27.1551 25.1457 26.3852 26.3076 24.8193C27.0443 23.8248 27.3425 22.6951 27.3425 21.4759C27.3403 19.3429 27.3425 17.21 27.3425 15.077L27.3403 15.0748Z" fill="#E5DFD6"/>
<path d="M23 14.5851C23.0046 18.6225 19.3881 21.9465 14.9954 21.9422C10.5958 21.938 6.98393 18.6098 7.00005 14.5787C7.01387 10.5413 10.5958 7.24907 14.9885 7.23636C19.3766 7.22366 22.9954 10.5434 23 14.5872V14.5851ZM20.2404 14.5851C20.2358 11.928 17.884 9.76638 14.9977 9.77274C12.1046 9.77697 9.75731 11.9386 9.76192 14.5914C9.76653 17.2506 12.1184 19.408 15.0046 19.4059C17.8955 19.4016 20.2473 17.24 20.2427 14.5872L20.2404 14.5851Z" fill="#E5DFD6"/>
<path d="M23.0444 5.27622C24.1438 5.30767 25.0333 6.21065 24.999 7.26413C24.9648 8.37376 24.0411 9.23182 22.9258 9.19588C21.8539 9.15994 20.9689 8.24797 21.0008 7.20573C21.0328 6.10957 21.9496 5.24477 23.0444 5.27622Z" fill="#E5DFD6"/>
</svg>
