<svg width="29" height="29" viewBox="0 0 29 29" fill="none" xmlns="http://www.w3.org/2000/svg">
<path d="M2.54916 0C10.5219 0 18.4969 0 26.4696 0C26.6422 0.0368817 26.8148 0.0650852 26.9852 0.110645C28.2421 0.44041 28.9945 1.40367 28.9967 2.72924C29.0011 10.3985 29.0011 18.0677 28.9967 25.7347C28.9967 26.3357 28.8484 26.9041 28.4634 27.3966C27.8748 28.1537 27.0693 28.4314 26.1355 28.4314C18.5589 28.4314 10.9822 28.4314 3.40773 28.4314C3.06032 28.4314 2.71069 28.4097 2.36328 28.3859C1.23475 28.3099 0.331918 27.4617 0.0862961 26.3812C0.053104 26.2402 0.0287665 26.097 0 25.956C0 18.1393 0 10.3204 0 2.50361C0.0243409 2.42768 0.0641664 2.35175 0.0708048 2.27365C0.168169 1.21709 1.09534 0.236476 2.14642 0.0824413C2.2814 0.0629157 2.41639 0.0303731 2.55137 0.00433902L2.54916 0ZM15.9477 12.2035C15.9477 11.8238 15.9477 11.5309 15.9477 11.2359C15.9433 10.7239 15.6446 10.4267 15.1224 10.4267C14.0646 10.4267 13.0069 10.4267 11.9492 10.4267C11.396 10.4267 11.0906 10.7217 11.0906 11.2663C11.0906 15.6747 11.0906 20.0832 11.0906 24.4916C11.0906 25.0578 11.4048 25.3594 11.989 25.3594C13.0091 25.3594 14.0292 25.3594 15.0493 25.3594C15.6534 25.3594 15.9477 25.0687 15.9477 24.4721C15.9477 22.2223 15.9477 19.9703 15.9477 17.7206C15.9477 16.9981 16.1071 16.3104 16.4235 15.6574C16.8882 14.7006 17.7423 14.2211 18.8332 14.3057C19.8556 14.3838 20.5725 14.9674 20.8358 16.0153C20.9642 16.5317 21.0438 17.0719 21.0483 17.6012C21.0704 19.8987 21.0571 22.1941 21.0571 24.4916C21.0571 25.0817 21.3381 25.3572 21.9378 25.3572C22.9955 25.3572 24.0533 25.3572 25.111 25.3572C25.7062 25.3572 26.0204 25.0578 26.0204 24.4677C26.0204 22.0878 26.0271 19.7078 26.005 17.3279C25.9939 16.2279 25.9275 15.1302 25.6354 14.0584C25.1442 12.2599 24.1462 10.9148 22.221 10.4136C21.0704 10.1143 19.9065 10.1251 18.7469 10.3637C17.6007 10.6002 16.6757 11.1817 15.9477 12.2013V12.2035ZM4.17114 17.8985C4.17114 20.0745 4.17114 22.2505 4.17114 24.4243C4.17114 25.06 4.4743 25.3594 5.12044 25.3594C6.06531 25.3594 7.00797 25.3594 7.95284 25.3594C8.74061 25.3594 9.02384 25.0795 9.02384 24.305C9.02384 21.5562 9.02384 18.8053 9.02384 16.0565C9.02384 14.4923 9.02384 12.9281 9.02384 11.3639C9.02384 10.7304 8.71183 10.4267 8.07233 10.4267C7.08099 10.4267 6.08965 10.4267 5.09831 10.4267C4.46324 10.4267 4.17114 10.7174 4.17114 11.3444C4.17114 13.5291 4.17114 15.7138 4.17114 17.8985ZM9.71202 6.16358C9.71202 4.4757 8.29583 3.08938 6.57426 3.09589C4.87261 3.1024 3.45862 4.49522 3.45862 6.16575C3.45862 7.8341 4.87704 9.23127 6.57648 9.23777C8.29362 9.24428 9.71202 7.85363 9.71202 6.16358Z" fill="#E5DFD6"/>
</svg>
