<svg width="184" height="54" viewBox="0 0 184 54" fill="none" xmlns="http://www.w3.org/2000/svg">
<path d="M80.2338 6.12659C77.3111 5.51662 75.4263 3.63027 74.2998 0.190784L74.2379 0L74.1761 0.190784C73.0495 3.63027 71.1647 5.51662 68.2421 6.12659L67.9355 6.19108L68.2421 6.25557C71.1647 6.86555 73.0495 8.75189 74.1761 12.1914L74.2379 12.3822L74.2998 12.1914C75.4263 8.75189 77.3111 6.86555 80.2338 6.25557L80.5403 6.19108L80.2338 6.12659Z" fill="#FFCC31"/>
<path d="M142.997 6.12659C140.075 5.51662 138.19 3.63027 137.063 0.190784L137.002 0L136.94 0.190784C135.813 3.63027 133.928 5.51662 131.006 6.12659L130.699 6.19108L131.006 6.25557C133.928 6.86555 135.813 8.75189 136.94 12.1914L137.002 12.3822L137.063 12.1914C138.19 8.75189 140.075 6.86555 142.997 6.25557L143.304 6.19108L142.997 6.12659Z" fill="#439848"/>
<path d="M151.356 1.41089C146.067 1.41089 141.779 5.69682 141.779 10.9823V20.535C141.779 23.171 139.633 25.3127 136.998 25.3127C134.363 25.3127 132.218 23.1684 132.218 20.535V10.9797C132.218 5.69413 127.929 1.4082 122.641 1.4082V20.5457C122.649 28.4646 129.072 34.8922 136.998 34.8922C139.636 34.8922 141.774 37.0284 141.774 39.6645C141.774 42.3005 139.636 44.4368 136.998 44.4368C134.361 44.4368 132.237 42.3113 132.226 39.686H122.657C122.668 47.5941 129.085 54.0002 136.998 54.0002C144.911 54.0002 151.34 47.5834 151.34 39.6672C151.34 35.9966 149.958 32.6485 147.686 30.1145C149.963 27.5779 151.351 24.2271 151.354 20.5511V1.41089H151.356Z" fill="#E3DDD4"/>
<path d="M88.5984 1.41089C83.3097 1.41089 79.0212 5.69682 79.0212 10.9823V20.535C79.0212 23.171 76.8756 25.3127 74.2406 25.3127C71.6057 25.3127 69.46 23.1684 69.46 20.535V10.9797C69.46 5.69413 65.1715 1.4082 59.8828 1.4082V20.5431C59.8882 28.4646 66.3142 34.8922 74.2406 34.8922C76.8782 34.8922 79.0158 37.0284 79.0158 39.6645C79.0158 42.3005 76.8782 44.4368 74.2406 44.4368C71.603 44.4368 69.4789 42.3113 69.4681 39.686H59.8989C59.9097 47.5941 66.3277 54.0002 74.2406 54.0002C82.1535 54.0002 88.5823 47.5834 88.5823 39.6672C88.5823 35.9966 87.2003 32.6485 84.9283 30.1145C87.2056 27.5752 88.593 24.2244 88.5957 20.5457V1.41089H88.5984Z" fill="#E3DDD4"/>
<path d="M91.0078 9.53889C90.8841 14.2574 94.6752 18.1215 99.3671 18.1215C95.0812 18.1215 91.5483 21.346 91.0643 25.5003C91.032 25.7663 91.0266 26.035 91.024 26.3037C91.0186 27.3544 91.0051 34.8756 91.0051 34.8756H100.58V28.1659C100.58 26.2553 102.128 24.7076 104.04 24.7076L114.937 24.7129V15.738H103.067C101.782 15.738 100.655 14.7707 100.577 13.4862C100.494 12.0943 101.599 10.9389 102.973 10.9389H119.68V1.40234H99.5553C94.9925 1.40234 91.1261 4.97888 91.0078 9.53889Z" fill="#E3DDD4"/>
<path d="M182.997 15.7593C182.997 7.83502 176.568 1.41016 168.639 1.41016C160.71 1.41016 154.281 7.83502 154.281 15.7593V34.8834H163.858V20.0801C160.654 18.5619 158.473 16.0952 158.473 16.0952C158.473 16.0952 163.025 10.9467 168.642 10.9467C174.258 10.9467 178.81 16.0952 178.81 16.0952C178.81 16.0952 176.627 18.5619 173.422 20.0828V34.8834H183.002L182.997 15.7593Z" fill="#E3DDD4"/>
<path d="M57.294 25.1001C56.6353 21.142 53.1937 18.1244 49.0477 18.1244C53.667 18.1244 57.4123 14.3813 57.4123 9.76485C57.4123 5.14841 53.667 1.40527 49.0477 1.40527H14.3605C6.4395 1.41065 0.0188211 7.82745 0.0188211 15.7436C0.0188211 15.7517 0.0134436 20.4246 0.0134436 20.4246C0.0107549 26.0514 3.25067 30.9741 7.96669 33.3603C8.04735 33.4033 8.09037 33.4302 8.17372 33.4651C9.72512 34.2766 10.7791 34.1799 12.0993 34.0186C13.1667 33.2259 13.9599 32.0167 14.5245 30.3615C15.0488 32.0248 15.8151 33.2501 16.8583 34.067C18.1731 34.2524 19.5874 33.9541 21.1495 33.1776C20.3483 34.7334 20.0283 36.1441 20.2004 37.4635C20.9989 38.5276 22.2142 39.3149 23.8732 39.8711C22.1981 40.4086 20.9721 41.1851 20.1601 42.2465C19.9611 43.5686 20.2515 44.9901 21.0285 46.5674C19.4717 45.7559 18.0575 45.4334 16.7346 45.6C15.6618 46.39 14.8606 47.5992 14.2933 49.2599C13.769 47.5885 13.0027 46.3605 11.9541 45.5409C10.6366 45.3421 9.21426 45.6296 7.64136 46.3981C8.45604 44.8477 8.78407 43.4369 8.62005 42.1149C7.83226 41.0481 6.62771 40.25 4.97683 39.6804H0C0.0107549 47.5885 6.4395 53.9945 14.3659 53.9945C22.2922 53.9945 28.7344 47.5777 28.7344 39.6615C28.7344 35.9614 27.3282 32.5891 25.0213 30.0471C27.3228 27.5024 28.7263 24.1274 28.7263 20.4273V15.7436H19.1491V20.4273C19.1491 23.0633 17.0035 25.2049 14.3685 25.2049C11.7336 25.2049 9.58799 23.0606 9.58799 20.4273V15.7463C9.58799 13.113 11.7202 10.9794 14.3551 10.974L45.4421 10.9472C46.8215 10.9472 47.9265 12.108 47.8378 13.5053C47.7544 14.7817 46.6386 15.7436 45.3615 15.7436H33.48V24.7132L44.3774 24.7078C46.2891 24.7078 47.8378 26.2556 47.8378 28.1661V34.8731H57.4123L57.3908 26.4276C57.3908 25.9842 57.3666 25.5381 57.294 25.1001Z" fill="#E3DDD4"/>
<path d="M17.0101 42.2476C18.4497 40.8089 18.4497 38.4763 17.0101 37.0376C15.5706 35.5989 13.2366 35.5989 11.797 37.0376C10.3574 38.4763 10.3574 40.8089 11.797 42.2476C13.2366 43.6863 15.5706 43.6863 17.0101 42.2476Z" fill="#EA7442"/>
<path d="M168.642 19.7469C170.678 19.7469 172.329 18.0975 172.329 16.0629C172.329 14.0283 170.678 12.3789 168.642 12.3789C166.606 12.3789 164.956 14.0283 164.956 16.0629C164.956 18.0975 166.606 19.7469 168.642 19.7469Z" fill="#2387C0"/>
</svg>
