<svg width="36" height="30" viewBox="0 0 36 30" fill="none" xmlns="http://www.w3.org/2000/svg">
<path d="M32.2778 4.95171C33.5091 4.78813 34.5356 4.49586 35.5332 4.10107C35.6646 4.04873 35.8204 3.88733 35.9474 4.04437C36.0832 4.21013 35.9251 4.37153 35.8227 4.50022C35.0122 5.54497 34.1682 6.57009 33.0683 7.33566C32.5918 7.66719 32.4871 8.06415 32.4849 8.59635C32.4648 12.9389 31.2469 16.9435 28.8265 20.5816C26.6443 23.8619 23.7407 26.3659 20.1091 28.0061C17.8824 29.0094 15.5087 29.4827 13.0639 29.7051C10.6702 29.9233 8.3322 29.6812 6.02314 29.1337C3.88331 28.6277 1.87263 27.7945 0 26.5076C3.84546 26.6756 7.36137 25.8119 10.501 23.5021C10.1892 23.284 9.85078 23.3254 9.55241 23.2687C6.88486 22.743 5.1013 21.1814 4.01691 18.7821C3.78979 18.2805 3.96792 18.1583 4.46002 18.2303C5.17701 18.335 5.89399 18.3699 6.75126 18.1104C6.22799 17.8857 5.81383 17.7396 5.42862 17.5389C2.91248 16.2324 1.48074 14.2083 1.27366 11.4056C1.22467 10.7578 1.32264 10.7142 1.9283 10.9607C2.63415 11.2464 3.33332 11.5474 4.21508 11.5299C3.67846 10.9934 3.15742 10.5463 2.75884 9.9879C1.02427 7.55814 0.850587 4.99315 2.00623 2.29075C2.24225 1.73675 2.48941 1.84799 2.79224 2.20569C3.96347 3.58415 5.31283 4.76413 6.81806 5.79144C8.94676 7.24624 11.2647 8.26918 13.7764 8.89516C14.7984 9.15035 15.8383 9.30084 16.8848 9.40772C17.3725 9.45788 17.6085 9.33574 17.535 8.76429C17.1164 5.59514 18.6417 2.68553 21.5987 1.17402C24.0302 -0.0692109 27.4548 0.0202148 29.9331 2.25804C30.3807 2.66154 30.7926 2.70298 31.2958 2.53722C32.4181 2.16861 33.5425 1.8 34.5735 1.21328C34.7115 1.13476 34.8474 0.925376 35.0277 1.08242C35.1881 1.22201 35.0634 1.41176 34.9988 1.56226C34.4688 2.79023 33.714 3.85243 32.614 4.65944C32.5316 4.72051 32.4559 4.79249 32.2733 4.95171H32.2778Z" fill="#E5DFD6"/>
</svg>
